# xmcd CD database file
#
# Track frame offsets:
#	150
#	14754
#	32966
#	50317
#	67149
#	85460
#	100454
#	118304
#	138256
#	157198
#	174186
#	188458
#
# Disc length: 2745 seconds
#
# Revision: 0
# Processed by: cddbd v1.5.2PL0 Copyright (c) Steve Scherf et al.
# Submitted via: CDex 1.78
#
DISCID=aa0ab70c
DTITLE=Raintown - Writing On The Wall
DYEAR=2015
DGENRE=Country
TTITLE0=Writing On The Wall
TTITLE1=If This Was A Love Song
TTITLE2=Living The Same Old Song
TTITLE3=Forever Isn't Long Enough
TTITLE4=Right Here With Me
TTITLE5=Better Beautiful
TTITLE6=Shut The Front Door
TTITLE7=Nineteen Again
TTITLE8=Missing You
TTITLE9=Feel Much Better Now
TTITLE10=See You Again
TTITLE11=Beautiful Life
EXTD=YEAR: 2015
EXTT0=
EXTT1=
EXTT2=
EXTT3=
EXTT4=
EXTT5=
EXTT6=
EXTT7=
EXTT8=
EXTT9=
EXTT10=
EXTT11=
PLAYORDER=
